<svg xmlns="http://www.w3.org/2000/svg" width="170" height="102" viewBox="0 0 170 102">
	<path fill="#00305A" d="M73.4,44.7C73.4,44.6,73.4,44.6,73.4,44.7c0.1-0.1,0.1-0.1,0.2-0.1c6.3-4.6,7.7-13.3,2.6-20.4C67.8,12.5,54,24,54,24l-0.3-0.4c5.2-3.8,10.5-9.2,4.4-17.7c-3.8-5.3-11-6.4-16.2-2.6c-0.1,0.1-13.8,10.1-13.8,10.1l29.7,41.7L73.4,44.7z M163.4,88.5c0-4.1-2.9-7.1-6.7-7.1c-3.8,0-6.8,3.2-6.8,7.1c0,3.9,2.9,7,7.1,7C160.4,95.5,163.4,92.5,163.4,88.5z M156.3,101c-3,0-5.7-1-7.7-2.8c-2.9-2.5-4.4-6-4.4-9.8c0-3.5,1.4-6.9,4-9.3c2.2-2.1,5-3.1,8.1-3.1c2.9,0,5.2,0.7,7.3,2.5V68.3l5.4-1.2v33.3h-5.4v-2C161.4,100.2,159,101,156.3,101z M19.7,94.8h-1.8v-8.2h1.8c3.6,0,5.4,1.5,5.4,4.3C25.1,93.6,23.3,94.8,19.7,94.8z M17.9,74.4h0.9c3.2,0,4.8,1.1,4.8,3.5c0,2.5-1.7,3.7-5,3.7h-0.7V74.4z M26.2,83.4c2.1-1.1,3.2-3.2,3.2-6.1c0-3.5-1.9-6.3-5.3-7.7c-1.8-0.7-3.9-0.7-6.4-0.7c-0.3,0-0.7,0-1.1,0H12v31.5h7.8c3.4,0,5.9-0.3,8.3-2.3c1.9-1.6,3.1-4.3,3.1-7.4C31.1,87.1,29.2,84.3,26.2,83.4z M39.2,85.8c0.8-3,3.4-4.9,6.3-4.9c3.3,0,5.6,1.7,6.5,4.9H39.2z M45.4,75.8c-3.2,0-6.4,1.4-8.8,4c-2.2,2.3-3.3,5.3-3.3,8.6c0,3.2,1.3,6.4,3.5,8.8c2.4,2.5,5.4,3.7,8.8,3.7c5.2,0,9.4-3,11.4-8.2h-5.9c-1.1,1.9-3.2,3-5.6,3c-3.7,0-6.2-2.1-6.5-5.5h18.9c0.2-3.7-0.4-6.6-2.2-9C53.2,77.8,49.5,75.8,45.4,75.8z M115.3,95.5c-4,0-6.7-2.7-6.7-7.2c0-4.1,2.7-7,6.7-7c3.8,0,6.7,2.8,6.7,6.9C122,92.7,119.3,95.5,115.3,95.5z M123.9,79.2c-2.4-2.3-5.2-3.4-8.7-3.4c-3.2,0-6.3,1.3-8.6,3.7c-2.3,2.3-3.6,5.5-3.6,8.8c0,3.4,1.2,6.4,3.5,8.8c2.4,2.6,5.3,3.8,8.8,3.8c3.5,0,6.5-1.2,8.9-3.7c2.4-2.4,3.5-5.5,3.5-9C127.7,84.9,126.3,81.6,123.9,79.2z M66.3,88.5c0,3.9,2.9,7,7.1,7c3.5,0,6.5-3,6.5-6.9c0-4.1-2.9-7.1-6.7-7.1C69.3,81.4,66.3,84.6,66.3,88.5z M72.8,76c2.9,0,5.2,0.7,7.3,2.5V68.3l5.4-1.2v33.3h-5.4v-2c-2.2,1.8-4.6,2.6-7.3,2.6c-3,0-5.7-1-7.7-2.8c-2.9-2.5-4.4-6-4.4-9.8c0-3.5,1.4-6.9,4-9.3C66.8,77,69.7,76,72.8,76z M91.6,100.3h5.3v-18h4.5v-4.9H97c-0.2-2.4,0.7-4.8,6.5-4.8l-1.7-5c-6.6-0.4-10.6,4-10.3,9.8h-2.6v4.9h2.8L91.6,100.3L91.6,100.3z M136.3,81.4c1.9-3.5,4.4-4.2,8.3-4.3l-1.9,6c-4.3,0-6.1,2.5-6.1,6.4l-0.1,10.8h-5.4V78.5l5.3-1.2L136.3,81.4L136.3,81.4z M13.7,27.5c-8.4-11.8,10.2-1.4,10.2-1.4l-0.3-0.4C17.2,22.3,9,17.3,2.9,8.8c-3.8-5.3-1.6-6.9,4.8-3.5c0.2,0.1,17.1,9,17.1,9l29.9,42.1l-18.1-9.2l0,0c-0.1,0-0.1,0-0.1-0.1C28.7,43,18.8,34.6,13.7,27.5z"/>
</svg>
